<?xml version="1.0" ?>
<svg height="5cm" version="1.1" viewBox="0 0 1000 500" width="10cm" xmlns="http://www.w3.org/2000/svg">
  <svg height="500.0" viewBox="0 0 1000 1000" width="500.0" x="0" y="0">
    <rect fill="lavender" height="1000" width="1000"/>
    <g stroke="white" stroke-width="10.0">
      <style>.title {font-family:sans-serif;font-weight:bold;font-size:80.0px;dominant-baseline:middle;text-anchor:middle;stroke:none;fill:black;}
.label {font-family:sans-serif;font-weight:bold;font-size:80.0px;dominant-baseline:middle;text-anchor:middle;stroke:none;fill:white;}</style>
      <g>
        <path d="M 500,500 L 1000.0,500.0 A 500,500 0 0,1 537.3650467932122,998.60189859059 Z" fill="red"/>
        <text class="label" transform="translate(738.2418583446936 721.0561397755488) rotate(0)" x="0" y="0">Fee</text>
      </g>
      <g>
        <path d="M 500,500 L 537.3650467932122,998.60189859059 A 500,500 0 0,1 5.584586887435762,574.5211330880874 Z" fill="blue"/>
        <text class="label" transform="translate(297.3658143959116 754.0952318021098) rotate(0)" x="0" y="0">Fi</text>
      </g>
      <g>
        <path d="M 500,500 L 5.584586887435762,574.5211330880874 A 500,500 0 0,1 388.7395330218427,12.536043909088164 Z" fill="green"/>
        <text class="label" transform="translate(231.47239834730158 316.92098112932297) rotate(0)" x="0" y="0">Fo</text>
      </g>
      <g>
        <path d="M 500,500 L 388.7395330218427,12.536043909088164 A 500,500 0 0,1 977.7864028930703,352.62241279454764 Z" fill="orange"/>
        <text class="label" transform="translate(662.4999999999998 218.54174377005734) rotate(0)" x="0" y="0">Fum</text>
      </g>
      <g>
        <path d="M 500,500 L 977.7864028930703,352.62241279454764 A 500,500 0 0,1 1000.0,499.9999999999999 Z" fill="teal"/>
        <text class="label" transform="translate(860.9232515721718 445.599572845696) rotate(-8.57142857142862)" x="0" y="0">smell</text>
      </g>
      <g>
        <circle cx="500" cy="500" fill="silver" r="150"/>
        <text class="title" x="500" y="500">Giant</text>
      </g>
    </g>
  </svg>
  <svg height="300.0" viewBox="0 0 1000 1000" width="300.0" x="700.0" y="200.0">
    <rect fill="lavender" height="1000" width="1000"/>
    <g stroke="white" stroke-width="10.0">
      <style>.title {font-family:sans-serif;font-weight:bold;font-size:80.0px;dominant-baseline:middle;text-anchor:middle;stroke:none;fill:black;}
.label {font-family:sans-serif;font-weight:bold;font-size:80.0px;dominant-baseline:middle;text-anchor:middle;stroke:none;fill:white;}</style>
      <g>
        <path d="M 500,500 L 1000.0,500.0 A 500,500 0 0,1 537.3650467932122,998.60189859059 Z" fill="red"/>
        <text class="label" transform="translate(738.2418583446936 721.0561397755488) rotate(0)" x="0" y="0">Fee</text>
      </g>
      <g>
        <path d="M 500,500 L 537.3650467932122,998.60189859059 A 500,500 0 0,1 5.584586887435762,574.5211330880874 Z" fill="blue"/>
        <text class="label" transform="translate(297.3658143959116 754.0952318021098) rotate(0)" x="0" y="0">Fi</text>
      </g>
      <g>
        <path d="M 500,500 L 5.584586887435762,574.5211330880874 A 500,500 0 0,1 388.7395330218427,12.536043909088164 Z" fill="green"/>
        <text class="label" transform="translate(231.47239834730158 316.92098112932297) rotate(0)" x="0" y="0">Fo</text>
      </g>
      <g>
        <path d="M 500,500 L 388.7395330218427,12.536043909088164 A 500,500 0 0,1 977.7864028930703,352.62241279454764 Z" fill="orange"/>
        <text class="label" transform="translate(662.4999999999998 218.54174377005734) rotate(0)" x="0" y="0">Fum</text>
      </g>
      <g>
        <path d="M 500,500 L 977.7864028930703,352.62241279454764 A 500,500 0 0,1 1000.0,499.9999999999999 Z" fill="teal"/>
        <text class="label" transform="translate(860.9232515721718 445.599572845696) rotate(-8.57142857142862)" x="0" y="0">smell</text>
      </g>
      <g>
        <circle cx="500" cy="500" fill="silver" r="150"/>
        <text class="title" x="500" y="500">Giant</text>
      </g>
    </g>
  </svg>
  <text fill="red" font-family="sans-serif" font-size="100.0" x="600.0" y="125.0">Fancy</text>
</svg>
